<svg xmlns="http://www.w3.org/2000/svg" fill="none" viewBox="0 0 1587 1703"><path fill="#FBEFAF" d="M1174.1 917.1v-17.3c217.3 0 371.2-152.8 371.2-372.5C1545.3 216.3 1191.1.5 776 .5 433.3.5 183.4 116.4 8.4 270.5l188.4 511.4h29.8s214.9-259.6 497.6-259.6c218.5 0 410.6 134.1 390.5 351.3C995.2 794.6 812 746 652.8 746 289.3 746 0 923.3 0 1242.4 0 1473.2 197 1703 515.5 1703c414.4 0 662.2-354.9 632.7-690h24.1c41 268.2-63.1 483.2-196.8 627.6v28H1587V1637c0-420.3-266.7-611.9-412.9-720Zm-389 345.4c-107.8 0-190.7-76.2-190.7-184.5 0-119.3 95.8-195 239.1-195 111.8 0 227.6 55.3 259.8 74.9-34.3 198.4-158.1 304.6-308.1 304.6Z"/></svg>